<svg width="65" height="66" viewBox="0 0 65 66" fill="none" xmlns="http://www.w3.org/2000/svg">
<rect x="0.5" y="0.5" width="64" height="65" rx="32" fill="white" fill-opacity="0.1"/>
<rect x="0.5" y="0.5" width="64" height="65" rx="32" stroke="white"/>
<path d="M27.3231 20.0909C25.9931 20.1562 25.0848 20.3769 24.2908 20.7014C23.4691 21.0345 22.7725 21.4814 22.0795 22.2047C21.3865 22.928 20.9598 23.6529 20.6418 24.5089C20.334 25.3364 20.1255 26.2818 20.0668 27.6658C20.008 29.0498 19.995 29.4946 20.0015 33.0249C20.008 36.5552 20.023 36.9977 20.0875 38.3846C20.151 39.7675 20.3625 40.7119 20.6745 41.5379C20.9953 42.3925 21.4245 43.1166 22.1203 43.8376C22.816 44.5586 23.5126 45.0013 24.3376 45.3326C25.1326 45.6521 26.0418 45.87 27.3723 45.9306C28.7029 45.9912 29.1311 46.0052 32.5246 45.9984C35.9182 45.9917 36.3454 45.9761 37.6787 45.9103C39.012 45.8445 39.9152 45.623 40.7097 45.3001C41.5315 44.9657 42.2282 44.5201 42.921 43.7962C43.6138 43.0724 44.0403 42.347 44.358 41.4906C44.666 40.6638 44.8753 39.7181 44.933 38.3354C44.9913 36.9478 45.005 36.5048 44.9985 32.975C44.992 29.4452 44.9768 29.0027 44.9135 27.6164C44.8503 26.2301 44.6385 25.2886 44.3268 24.4621C44.0055 23.6074 43.5768 22.8838 42.8813 22.1623C42.1857 21.4408 41.4877 20.9975 40.6645 20.6679C39.869 20.3478 38.9602 20.1297 37.6297 20.0699C36.2992 20.0101 35.8709 19.9947 32.4761 20.0015C29.0814 20.0082 28.6564 20.0233 27.3231 20.0909ZM27.4691 43.5919C26.2503 43.5368 25.5886 43.3262 25.1476 43.1499C24.5636 42.9159 24.1476 42.633 23.7081 42.1803C23.2686 41.7277 22.9986 41.2935 22.7705 40.6874C22.5993 40.2288 22.393 39.5413 22.336 38.2738C22.274 36.9039 22.261 36.4926 22.2538 33.0218C22.2465 29.5511 22.2593 29.1403 22.317 27.7698C22.369 26.5033 22.5728 25.8143 22.742 25.3559C22.9671 24.7478 23.2381 24.3159 23.6743 23.8591C24.1106 23.4023 24.5268 23.121 25.1101 22.8838C25.5506 22.705 26.2116 22.4923 27.4298 22.432C28.7481 22.367 29.1431 22.354 32.4799 22.3464C35.8167 22.3389 36.2127 22.3519 37.5314 22.4122C38.7492 22.4673 39.412 22.6771 39.8522 22.8542C40.4365 23.0882 40.8522 23.3693 41.2915 23.8238C41.7307 24.2782 42.0015 24.7096 42.2295 25.3175C42.4017 25.7743 42.6062 26.4615 42.6637 27.7292C42.7265 29.1002 42.7408 29.5113 42.7468 32.9812C42.7528 36.4512 42.741 36.8633 42.6833 38.2333C42.63 39.5008 42.428 40.1892 42.2582 40.6484C42.0332 41.2555 41.762 41.6884 41.3255 42.145C40.889 42.6015 40.4732 42.8829 39.8897 43.12C39.4497 43.2986 38.788 43.5118 37.5707 43.5721C36.2524 43.6366 35.8574 43.6501 32.5194 43.6577C29.1814 43.6652 28.7876 43.6512 27.4693 43.5919M37.6594 26.052C37.6599 26.3605 37.7484 26.662 37.9137 26.9183C38.0789 27.1745 38.3135 27.3741 38.5879 27.4917C38.8622 27.6092 39.1638 27.6396 39.4547 27.5788C39.7456 27.5181 40.0127 27.369 40.2221 27.1504C40.4315 26.9318 40.5739 26.6536 40.6312 26.3508C40.6885 26.0481 40.6583 25.7345 40.5442 25.4496C40.4301 25.1648 40.2374 24.9215 39.9904 24.7506C39.7434 24.5796 39.4532 24.4887 39.1565 24.4894C38.7587 24.4902 38.3776 24.6553 38.0968 24.9483C37.8161 25.2413 37.6588 25.6383 37.6594 26.052ZM26.0818 33.013C26.0888 36.6998 28.9679 39.6817 32.5121 39.6747C36.0564 39.6677 38.9257 36.6738 38.919 32.987C38.9122 29.3002 36.0324 26.3174 32.4876 26.3247C28.9429 26.332 26.0751 29.3267 26.0818 33.013ZM28.3334 33.0083C28.3317 32.1512 28.5745 31.3129 29.031 30.5993C29.4875 29.8857 30.1372 29.329 30.898 28.9994C31.6587 28.6699 32.4964 28.5823 33.3049 28.7479C34.1135 28.9134 34.8568 29.3246 35.4407 29.9295C36.0246 30.5343 36.4229 31.3056 36.5852 32.1459C36.7476 32.9862 36.6668 33.8576 36.3529 34.6501C36.039 35.4426 35.5063 36.1205 34.8219 36.5981C34.1376 37.0756 33.3325 37.3314 32.5084 37.3331C31.9612 37.3343 31.4191 37.2234 30.9131 37.0067C30.4071 36.79 29.9472 36.4717 29.5595 36.0701C29.1718 35.6685 28.8639 35.1914 28.6536 34.666C28.4432 34.1407 28.3344 33.5774 28.3334 33.0083Z" fill="white" fill-opacity="0.8"/>
</svg>
