<svg width="724" height="730" viewBox="0 0 724 730" fill="none" xmlns="http://www.w3.org/2000/svg">
<g clip-path="url(#clip0_32_1036)">
<path d="M386.386 3.15922C436.935 -2.06718 482.172 34.6347 487.387 85.1046C492.622 135.574 455.862 180.74 405.313 185.947" stroke="white" stroke-linecap="round" stroke-linejoin="round"/>
<path d="M543.132 0.741089V179.648L463.851 100.491" stroke="white" stroke-linecap="round" stroke-linejoin="round"/>
<path d="M723.531 139.007C687.729 182.339 623.507 188.482 580.106 152.736C556.765 133.507 544.187 106.069 543.132 78.084" stroke="white" stroke-linecap="round" stroke-linejoin="round"/>
<path d="M543.132 375.892V546.471" stroke="white" stroke-linecap="round" stroke-linejoin="round"/>
<path d="M590.966 613.186H404.707" stroke="white" stroke-linecap="round" stroke-linejoin="round"/>
<path d="M533.229 318.421C549.304 321.521 566.395 314.91 575.907 300.362C588.447 281.192 583.036 255.489 563.816 242.969C544.616 230.449 518.873 235.851 506.333 255.041C493.794 274.23 499.204 299.914 518.424 312.434L551.003 256.094" stroke="white" stroke-linecap="round" stroke-linejoin="round"/>
<path d="M597.373 717.188C563.23 712.722 539.186 681.461 543.659 647.372C546.062 629.041 556.238 613.615 570.418 603.981" stroke="white" stroke-linecap="round" stroke-linejoin="round"/>
<path d="M615.674 598.852C615.499 614.512 628.058 627.325 643.742 627.5" stroke="white" stroke-linecap="round" stroke-linejoin="round"/>
<path d="M631.847 599.028C631.769 605.756 637.179 611.275 643.918 611.353" stroke="white" stroke-linecap="round" stroke-linejoin="round"/>
<path d="M18.6142 13.8656C18.3993 33.4451 34.1032 49.4949 53.7135 49.7094" stroke="white" stroke-linecap="round" stroke-linejoin="round"/>
<path d="M18.6142 173.856C18.3993 193.435 34.1032 209.485 53.7135 209.7" stroke="white" stroke-linecap="round" stroke-linejoin="round"/>
<path d="M36.1541 84.7926C36.0565 93.1978 42.8146 100.101 51.233 100.199" stroke="white" stroke-linecap="round" stroke-linejoin="round"/>
<path d="M122.662 44.4828C122.662 21.588 141.257 3.02258 164.188 3.02258H251.36C274.291 3.02258 292.885 21.588 292.885 44.4828" stroke="white" stroke-linecap="round" stroke-linejoin="round"/>
<path d="M282.514 90.604C259.583 90.604 240.988 72.0386 240.988 49.1438" stroke="white" stroke-linecap="round" stroke-linejoin="round"/>
<path d="M128.424 77.85C151.355 77.85 169.95 59.2845 169.95 36.3898" stroke="white" stroke-linecap="round" stroke-linejoin="round"/>
<path d="M206.651 55.7158V185.674" stroke="white" stroke-linecap="round" stroke-linejoin="round"/>
<path d="M165.145 126.272C166.512 136.394 164.52 147.022 158.738 156.402C150.437 169.878 136.276 177.561 121.549 178.185" stroke="white" stroke-linecap="round" stroke-linejoin="round"/>
<path d="M342.165 174.987C320.25 201.509 280.951 205.273 254.407 183.392C240.129 171.633 232.433 154.842 231.789 137.72" stroke="white" stroke-linecap="round" stroke-linejoin="round"/>
<path d="M24.4348 216.935L114.732 126.799" stroke="white" stroke-linecap="round" stroke-linejoin="round"/>
<path d="M593.447 81.2822L668.333 6.53296" stroke="white" stroke-linecap="round" stroke-linejoin="round"/>
<path d="M189.443 61.4882C155.691 61.4882 128.327 34.1666 128.327 0.468018" stroke="white" stroke-linecap="round" stroke-linejoin="round"/>
<path d="M109.009 412.964C109.009 435.859 90.4146 454.424 67.4838 454.424C44.553 454.424 25.9583 435.859 25.9583 412.964V313.994C25.9583 291.099 44.553 272.534 67.4838 272.534C90.4146 272.534 109.009 291.099 109.009 313.994V412.964Z" stroke="white" stroke-linecap="round" stroke-linejoin="round"/>
<path d="M222.589 223.585C220.226 233.511 214.522 242.735 205.752 249.405C193.134 259 177.157 261.067 163.192 256.347" stroke="white" stroke-linecap="round" stroke-linejoin="round"/>
<path d="M178.134 111.997H256.067" stroke="white" stroke-linecap="round" stroke-linejoin="round"/>
<path d="M137.682 361.734H345.114" stroke="white" stroke-linecap="round" stroke-linejoin="round"/>
<path d="M238.781 269.823V467.12L181.513 409.922" stroke="white" stroke-linecap="round" stroke-linejoin="round"/>
<path d="M144.87 308.124C145.261 316.763 149.89 325.051 157.918 329.751" stroke="white" stroke-linecap="round" stroke-linejoin="round"/>
<path d="M269.388 329.537C290.971 320.429 306.109 299.095 306.109 274.23" stroke="white" stroke-linecap="round" stroke-linejoin="round"/>
<path d="M83.5392 577.362C83.5392 600.257 64.9445 618.822 42.0137 618.822C19.0829 618.822 0.46875 600.276 0.46875 577.362V478.392C0.46875 455.497 19.0634 436.931 41.9942 436.931C64.925 436.931 83.5196 455.497 83.5196 478.392V577.362H83.5392Z" stroke="white" stroke-linecap="round" stroke-linejoin="round"/>
<path d="M138.815 505.908H273.138" stroke="white" stroke-linecap="round" stroke-linejoin="round"/>
<path d="M195.127 561.487C236.34 561.487 269.74 528.14 269.74 486.992" stroke="white" stroke-linecap="round" stroke-linejoin="round"/>
<path d="M194.931 561.917H276.049" stroke="white" stroke-linecap="round" stroke-linejoin="round"/>
<path d="M256.594 553.004C258.137 615.663 208.506 667.693 145.769 669.233C133.737 669.526 122.076 667.946 111.099 664.748" stroke="white" stroke-linecap="round" stroke-linejoin="round"/>
<path d="M167.137 546.822C170.829 606.497 148.249 666.464 102.876 708.958C94.946 716.388 86.3128 723.272 77.0154 729.551" stroke="white" stroke-linecap="round" stroke-linejoin="round"/>
<path d="M199.404 580.618C220.636 640.137 267.513 689.066 329.293 711.552C340.095 715.491 351.345 718.611 363.006 720.834" stroke="white" stroke-linecap="round" stroke-linejoin="round"/>
<path d="M483.285 501.364C460.354 501.364 441.76 482.799 441.76 459.904C441.76 437.009 460.354 418.444 483.285 418.444H602.978C625.909 418.444 644.504 437.009 644.504 459.904C644.504 482.799 625.909 501.364 602.978 501.364H483.285Z" stroke="white" stroke-linecap="round" stroke-linejoin="round"/>
</g>
<defs>
<clipPath id="clip0_32_1036">
<rect width="724" height="730" fill="white"/>
</clipPath>
</defs>
</svg>
