<svg width="25" height="26" viewBox="0 0 25 26" fill="none" xmlns="http://www.w3.org/2000/svg">
<path d="M7.3231 0.0909192C5.99308 0.156179 5.08482 0.37692 4.29081 0.701401C3.46906 1.03446 2.77255 1.4814 2.07954 2.20473C1.38653 2.92805 0.95978 3.65293 0.641777 4.50885C0.334024 5.33644 0.125522 6.2818 0.0667709 7.66579C0.00802036 9.04977 -0.00497978 9.49463 0.00152028 13.0249C0.00802035 16.5552 0.0230205 16.9977 0.0875212 18.3846C0.151022 19.7675 0.362524 20.7119 0.674527 21.5379C0.99528 22.3925 1.42453 23.1166 2.12029 23.8376C2.81605 24.5586 3.51256 25.0013 4.33756 25.3326C5.13257 25.6521 6.04183 25.87 7.37235 25.9306C8.70286 25.9912 9.13111 26.0052 12.5246 25.9984C15.9182 25.9917 16.3454 25.9761 17.6787 25.9103C19.012 25.8445 19.9152 25.623 20.7097 25.3001C21.5315 24.9657 22.2282 24.5201 22.921 23.7962C23.6138 23.0724 24.0403 22.347 24.358 21.4906C24.666 20.6637 24.8753 19.7181 24.933 18.3354C24.9913 16.9478 25.005 16.5048 24.9985 12.975C24.992 9.44523 24.9768 9.00271 24.9135 7.61639C24.8503 6.23006 24.6385 5.2886 24.3268 4.46205C24.0055 3.60743 23.5768 2.88385 22.8813 2.16235C22.1857 1.44084 21.4877 0.997542 20.6645 0.667861C19.869 0.3478 18.9602 0.129659 17.6297 0.0698591C16.2992 0.0100589 15.8709 -0.00528112 12.4761 0.0014789C9.08136 0.00823892 8.65636 0.023319 7.3231 0.0909192ZM7.4691 23.5919C6.25033 23.5368 5.58858 23.3262 5.14757 23.1499C4.56357 22.9159 4.14756 22.633 3.70806 22.1803C3.26855 21.7277 2.99855 21.2935 2.77055 20.6874C2.5993 20.2288 2.39304 19.5413 2.33604 18.2738C2.27404 16.9039 2.26104 16.4926 2.25379 13.0218C2.24654 9.55105 2.25929 9.14025 2.31704 7.76979C2.36904 6.50332 2.5728 5.81432 2.74205 5.35594C2.96705 4.7478 3.23805 4.31593 3.67431 3.85911C4.11056 3.40229 4.52682 3.12097 5.11007 2.88385C5.55058 2.70497 6.21158 2.49229 7.42985 2.43197C8.74811 2.36697 9.14311 2.35397 12.4799 2.34643C15.8167 2.33889 16.2127 2.35189 17.5314 2.41221C18.7492 2.46733 19.412 2.67715 19.8522 2.85421C20.4365 3.08821 20.8522 3.36927 21.2915 3.82375C21.7307 4.27823 22.0015 4.70958 22.2295 5.31746C22.4017 5.77428 22.6062 6.46146 22.6637 7.72923C22.7265 9.10021 22.7407 9.51127 22.7467 12.9812C22.7528 16.4512 22.741 16.8633 22.6833 18.2333C22.63 19.5008 22.428 20.1892 22.2582 20.6484C22.0332 21.2555 21.762 21.6884 21.3255 22.145C20.889 22.6015 20.4732 22.8829 19.8897 23.12C19.4497 23.2986 18.788 23.5118 17.5707 23.5721C16.2524 23.6366 15.8574 23.6501 12.5194 23.6577C9.18136 23.6652 8.78761 23.6512 7.46935 23.5919M17.6594 6.05196C17.6599 6.36052 17.7484 6.662 17.9137 6.91827C18.0789 7.17453 18.3135 7.37407 18.5879 7.49166C18.8622 7.60924 19.1638 7.63958 19.4547 7.57884C19.7456 7.5181 20.0127 7.36901 20.2221 7.15042C20.4315 6.93184 20.5739 6.65357 20.6312 6.35083C20.6885 6.04808 20.6583 5.73446 20.5442 5.44961C20.4301 5.16476 20.2374 4.92149 19.9904 4.75057C19.7434 4.57964 19.4532 4.48874 19.1565 4.48935C18.7587 4.49018 18.3776 4.65526 18.0968 4.94829C17.8161 5.24132 17.6588 5.63831 17.6594 6.05196ZM6.08183 13.013C6.08883 16.6998 8.96786 19.6817 12.5121 19.6747C16.0564 19.6677 18.9257 16.6738 18.919 12.987C18.9122 9.30015 16.0324 6.31742 12.4876 6.3247C8.94286 6.33198 6.07508 9.32667 6.08183 13.013ZM8.33335 13.0083C8.33173 12.1512 8.57451 11.3129 9.031 10.5993C9.4875 9.88575 10.1372 9.32898 10.898 8.99943C11.6587 8.66988 12.4964 8.58234 13.3049 8.74788C14.1135 8.91342 14.8568 9.32461 15.4407 9.92945C16.0246 10.5343 16.4229 11.3056 16.5852 12.1459C16.7476 12.9862 16.6668 13.8576 16.3529 14.6501C16.039 15.4426 15.5063 16.1205 14.8219 16.5981C14.1376 17.0756 13.3325 17.3314 12.5084 17.3331C11.9612 17.3343 11.4191 17.2234 10.9131 17.0067C10.4071 16.79 9.94717 16.4717 9.55947 16.0701C9.17176 15.6685 8.86393 15.1914 8.65355 14.666C8.44318 14.1407 8.33437 13.5774 8.33335 13.0083Z" fill="white" fill-opacity="0.8"/>
</svg>
