<svg width="288" height="288" viewBox="0 0 288 288" fill="none" xmlns="http://www.w3.org/2000/svg">
<path d="M2 248.475L73.9534 124.635L144.286 1.81982L213.692 125.131L285.877 248.079L144.253 245.135L2 248.475Z" fill="#129A92"/>
<path d="M2 248.475L73.9534 124.635L144.286 1.81982L213.692 125.131L285.877 248.079L144.253 245.135L2 248.475Z" stroke="#129A92" stroke-width="1.73" stroke-miterlimit="10"/>
<path d="M176.111 250.46C177.202 249.732 177.93 249.567 178.559 250.294C180.279 252.179 182.429 256.147 179.816 259.157C175.747 263.753 171.314 269.441 169.891 274.136C168.436 278.832 169.527 282.337 172.141 282.437C175.648 282.602 180.014 277.013 182.893 270.532C183.256 269.804 183.786 269.705 184.15 270.433C184.613 271.425 184.679 273.607 183.687 276.021C181.602 281.246 176.375 285.049 171.579 284.884C165.061 284.619 162.448 278.667 164.731 271.888C166.715 265.936 171.942 259.52 175.581 255.354C171.612 257.966 167.708 258.793 165.028 258.793C161.588 265.109 152.92 277.939 151.2 286.14C151.035 286.967 150.472 287.397 149.678 286.603C147.065 283.892 147.065 279.758 149.513 275.128C151.597 271.16 157.651 262.662 160.992 257.9C155.831 254.56 163.705 243.912 167.046 243.813C169.858 243.714 169.13 248.972 166.881 254.659C169.759 254.296 172.836 252.841 176.177 250.493L176.111 250.46Z" fill="#00534D"/>
<path d="M194.074 281.973C201.584 282.337 208.167 275.128 212.038 269.143C212.501 268.416 213.229 268.416 213.56 269.242C213.924 269.97 213.659 272.483 212.038 274.831C208.233 280.353 201.286 284.487 194.339 284.586C182.86 284.751 178.89 273.475 184.778 261.835C190.634 250.195 199.864 245.499 204.363 248.112C206.612 249.467 208.233 250.823 209.689 252.807C211.31 254.99 210.582 260.479 206.811 265.076C202.378 270.499 196.324 272.847 190.005 267.688C187.127 275.988 189.277 281.676 194.074 281.94V281.973ZM201.584 261.207C204.462 257.404 206.447 252.708 205.19 251.716C203.304 250.195 195.795 255.585 191.56 264.183C191.295 264.712 191.031 265.274 190.832 265.704C195.265 268.515 198.97 264.613 201.584 261.174V261.207Z" fill="#00534D"/>
<path d="M222.988 281.973C230.498 282.337 237.081 275.128 240.952 269.143C241.415 268.416 242.143 268.416 242.473 269.242C242.837 269.97 242.573 272.483 240.952 274.831C237.147 280.353 230.2 284.487 223.253 284.586C211.773 284.751 207.803 273.475 213.692 261.835C219.547 250.195 228.777 245.499 233.277 248.112C235.526 249.467 237.147 250.823 238.603 252.807C240.224 254.99 239.496 260.479 235.725 265.076C231.292 270.499 225.238 272.847 218.919 267.688C216.041 275.988 218.191 281.676 222.988 281.94V281.973ZM230.465 261.207C233.343 257.404 235.328 252.708 234.071 251.716C232.185 250.195 224.675 255.585 220.441 264.183C220.176 264.712 219.911 265.274 219.713 265.704C224.146 268.515 227.851 264.613 230.465 261.174V261.207Z" fill="#00534D"/>
<path d="M140.018 238.423C134.593 238.588 92.5455 239.514 93.2072 234.256C92.9425 233.429 129.796 232.008 130.689 232.107C138.728 232.735 153.714 229.395 158.875 229.594C162.679 229.693 256.996 222.153 256.136 229.494C256.401 230.222 195.232 236.207 166.352 235.546C161.919 235.083 156.228 236.009 151.001 236.902C151.101 239.051 150.472 242.06 148.024 246.458C142.599 256.313 139.985 269.639 132.939 286.173C132.575 287.066 127.083 286.372 126.455 285.743C125.198 284.586 124.106 281.874 125.297 277.542C127.381 270.135 137.14 250.559 145.543 237.828C143.459 238.191 141.672 238.357 140.051 238.456L140.018 238.423Z" fill="#00534D"/>
</svg>
